<?xml version="1.0" encoding="utf-8" standalone="no"?>
<!DOCTYPE svg PUBLIC "-//W3C//DTD SVG 1.1//EN"
  "http://www.w3.org/Graphics/SVG/1.1/DTD/svg11.dtd">
<svg xmlns:xlink="http://www.w3.org/1999/xlink" width="453.6pt" height="266.4pt" viewBox="0 0 453.6 266.4" xmlns="http://www.w3.org/2000/svg" version="1.1">
 <metadata>
  <rdf:RDF xmlns:dc="http://purl.org/dc/elements/1.1/" xmlns:cc="http://creativecommons.org/ns#" xmlns:rdf="http://www.w3.org/1999/02/22-rdf-syntax-ns#">
   <cc:Work>
    <dc:type rdf:resource="http://purl.org/dc/dcmitype/StillImage"/>
    <dc:date>2026-08-22T14:26:39.193147</dc:date>
    <dc:format>image/svg+xml</dc:format>
    <dc:creator>
     <cc:Agent>
      <dc:title>Matplotlib v3.10.9, https://matplotlib.org/</dc:title>
     </cc:Agent>
    </dc:creator>
   </cc:Work>
  </rdf:RDF>
 </metadata>
 <defs>
  <style type="text/css">*{stroke-linejoin: round; stroke-linecap: butt}</style>
 </defs>
 <g id="figure_1">
  <g id="patch_1">
   <path d="M 0 266.4 
L 453.6 266.4 
L 453.6 0 
L 0 0 
z
" style="fill: #ffffff"/>
  </g>
  <g id="axes_1">
   <g id="patch_2">
    <path d="M 15.876 212.9 
L 401.436 212.9 
L 401.436 59.5 
L 15.876 59.5 
z
" style="fill: #ffffff"/>
   </g>
   <g id="matplotlib.axis_1">
    <g id="xtick_1">
     <g id="line2d_1"/>
     <g id="text_1">
      <text style="font-size: 8px; font-family: 'Fira Sans', 'Source Sans Pro', 'Lato', 'DejaVu Sans', sans-serif; text-anchor: middle; fill: #58585b" x="32.913959" y="221.9" transform="rotate(-0 32.913959 221.9)">0</text>
     </g>
    </g>
    <g id="xtick_2">
     <g id="line2d_2"/>
     <g id="text_2">
      <text style="font-size: 8px; font-family: 'Fira Sans', 'Source Sans Pro', 'Lato', 'DejaVu Sans', sans-serif; text-anchor: middle; fill: #58585b" x="81.663485" y="221.9" transform="rotate(-0 81.663485 221.9)">100</text>
     </g>
    </g>
    <g id="xtick_3">
     <g id="line2d_3"/>
     <g id="text_3">
      <text style="font-size: 8px; font-family: 'Fira Sans', 'Source Sans Pro', 'Lato', 'DejaVu Sans', sans-serif; text-anchor: middle; fill: #58585b" x="130.413011" y="221.9" transform="rotate(-0 130.413011 221.9)">200</text>
     </g>
    </g>
    <g id="xtick_4">
     <g id="line2d_4"/>
     <g id="text_4">
      <text style="font-size: 8px; font-family: 'Fira Sans', 'Source Sans Pro', 'Lato', 'DejaVu Sans', sans-serif; text-anchor: middle; fill: #58585b" x="179.162537" y="221.9" transform="rotate(-0 179.162537 221.9)">300</text>
     </g>
    </g>
    <g id="xtick_5">
     <g id="line2d_5"/>
     <g id="text_5">
      <text style="font-size: 8px; font-family: 'Fira Sans', 'Source Sans Pro', 'Lato', 'DejaVu Sans', sans-serif; text-anchor: middle; fill: #58585b" x="227.912063" y="221.9" transform="rotate(-0 227.912063 221.9)">400</text>
     </g>
    </g>
    <g id="xtick_6">
     <g id="line2d_6"/>
     <g id="text_6">
      <text style="font-size: 8px; font-family: 'Fira Sans', 'Source Sans Pro', 'Lato', 'DejaVu Sans', sans-serif; text-anchor: middle; fill: #58585b" x="276.661589" y="221.9" transform="rotate(-0 276.661589 221.9)">500</text>
     </g>
    </g>
    <g id="xtick_7">
     <g id="line2d_7"/>
     <g id="text_7">
      <text style="font-size: 8px; font-family: 'Fira Sans', 'Source Sans Pro', 'Lato', 'DejaVu Sans', sans-serif; text-anchor: middle; fill: #58585b" x="325.411114" y="221.9" transform="rotate(-0 325.411114 221.9)">600</text>
     </g>
    </g>
    <g id="xtick_8">
     <g id="line2d_8"/>
     <g id="text_8">
      <text style="font-size: 8px; font-family: 'Fira Sans', 'Source Sans Pro', 'Lato', 'DejaVu Sans', sans-serif; text-anchor: middle; fill: #58585b" x="374.16064" y="221.9" transform="rotate(-0 374.16064 221.9)">700</text>
     </g>
    </g>
    <g id="text_9">
     <text style="font-size: 8px; font-family: 'Fira Sans', 'Source Sans Pro', 'Lato', 'DejaVu Sans', sans-serif; text-anchor: middle; fill: #58585b" x="208.656" y="233.84375" transform="rotate(-0 208.656 233.84375)">Simulated day</text>
    </g>
   </g>
   <g id="matplotlib.axis_2">
    <g id="ytick_1">
     <g id="line2d_9">
      <path d="M 15.876 205.927273 
L 401.436 205.927273 
" clip-path="url(#p7f813c18c2)" style="fill: none; stroke: #d9e0e3; stroke-width: 0.7; stroke-linecap: round"/>
     </g>
     <g id="line2d_10"/>
     <g id="text_10">
      <text style="font-size: 8px; font-family: 'Fira Sans', 'Source Sans Pro', 'Lato', 'DejaVu Sans', sans-serif; text-anchor: start; fill: #58585b" x="404.436" y="208.927273" transform="rotate(-0 404.436 208.927273)">0.0</text>
     </g>
    </g>
    <g id="ytick_2">
     <g id="line2d_11">
      <path d="M 15.876 184.459747 
L 401.436 184.459747 
" clip-path="url(#p7f813c18c2)" style="fill: none; stroke: #d9e0e3; stroke-width: 0.7; stroke-linecap: round"/>
     </g>
     <g id="line2d_12"/>
     <g id="text_11">
      <text style="font-size: 8px; font-family: 'Fira Sans', 'Source Sans Pro', 'Lato', 'DejaVu Sans', sans-serif; text-anchor: start; fill: #58585b" x="404.436" y="187.459747" transform="rotate(-0 404.436 187.459747)">2.0</text>
     </g>
    </g>
    <g id="ytick_3">
     <g id="line2d_13">
      <path d="M 15.876 162.992222 
L 401.436 162.992222 
" clip-path="url(#p7f813c18c2)" style="fill: none; stroke: #d9e0e3; stroke-width: 0.7; stroke-linecap: round"/>
     </g>
     <g id="line2d_14"/>
     <g id="text_12">
      <text style="font-size: 8px; font-family: 'Fira Sans', 'Source Sans Pro', 'Lato', 'DejaVu Sans', sans-serif; text-anchor: start; fill: #58585b" x="404.436" y="165.992222" transform="rotate(-0 404.436 165.992222)">4.0</text>
     </g>
    </g>
    <g id="ytick_4">
     <g id="line2d_15">
      <path d="M 15.876 141.524697 
L 401.436 141.524697 
" clip-path="url(#p7f813c18c2)" style="fill: none; stroke: #d9e0e3; stroke-width: 0.7; stroke-linecap: round"/>
     </g>
     <g id="line2d_16"/>
     <g id="text_13">
      <text style="font-size: 8px; font-family: 'Fira Sans', 'Source Sans Pro', 'Lato', 'DejaVu Sans', sans-serif; text-anchor: start; fill: #58585b" x="404.436" y="144.524697" transform="rotate(-0 404.436 144.524697)">6.0</text>
     </g>
    </g>
    <g id="ytick_5">
     <g id="line2d_17">
      <path d="M 15.876 120.057171 
L 401.436 120.057171 
" clip-path="url(#p7f813c18c2)" style="fill: none; stroke: #d9e0e3; stroke-width: 0.7; stroke-linecap: round"/>
     </g>
     <g id="line2d_18"/>
     <g id="text_14">
      <text style="font-size: 8px; font-family: 'Fira Sans', 'Source Sans Pro', 'Lato', 'DejaVu Sans', sans-serif; text-anchor: start; fill: #58585b" x="404.436" y="123.057171" transform="rotate(-0 404.436 123.057171)">8.0</text>
     </g>
    </g>
    <g id="ytick_6">
     <g id="line2d_19">
      <path d="M 15.876 98.589646 
L 401.436 98.589646 
" clip-path="url(#p7f813c18c2)" style="fill: none; stroke: #d9e0e3; stroke-width: 0.7; stroke-linecap: round"/>
     </g>
     <g id="line2d_20"/>
     <g id="text_15">
      <text style="font-size: 8px; font-family: 'Fira Sans', 'Source Sans Pro', 'Lato', 'DejaVu Sans', sans-serif; text-anchor: start; fill: #58585b" x="404.436" y="101.589646" transform="rotate(-0 404.436 101.589646)">10.0</text>
     </g>
    </g>
    <g id="ytick_7">
     <g id="line2d_21">
      <path d="M 15.876 77.122121 
L 401.436 77.122121 
" clip-path="url(#p7f813c18c2)" style="fill: none; stroke: #d9e0e3; stroke-width: 0.7; stroke-linecap: round"/>
     </g>
     <g id="line2d_22"/>
     <g id="text_16">
      <text style="font-size: 8px; font-family: 'Fira Sans', 'Source Sans Pro', 'Lato', 'DejaVu Sans', sans-serif; text-anchor: start; fill: #58585b" x="404.436" y="80.122121" transform="rotate(-0 404.436 80.122121)">12.0</text>
     </g>
    </g>
   </g>
   <g id="line2d_23">
    <path d="M 15.876 205.927273 
L 401.436 205.927273 
" clip-path="url(#p7f813c18c2)" style="fill: none; stroke: #b7c4cb; stroke-width: 0.8; stroke-linecap: round"/>
   </g>
   <g id="line2d_24">
    <path d="M 33.401455 180.683859 
L 34.86394 181.581043 
L 35.351436 182.850641 
L 36.326426 183.429784 
L 37.301417 183.874089 
L 37.788912 184.963543 
L 41.201379 186.673401 
L 42.176369 187.011952 
L 42.663864 187.384552 
L 44.613845 187.876 
L 45.101341 193.050736 
L 45.588836 193.139703 
L 46.076331 166.611756 
L 48.026312 167.916692 
L 48.513808 177.171793 
L 49.488798 177.762069 
L 49.976293 178.15955 
L 50.463789 179.368487 
L 51.438779 179.916466 
L 52.41377 180.323306 
L 52.901265 181.341014 
L 54.851246 182.138708 
L 55.338741 182.511033 
L 57.288722 183.14702 
L 57.776217 183.633991 
L 59.726199 184.075976 
L 60.213694 189.223929 
L 60.701189 189.322864 
L 61.188684 162.865762 
L 61.67618 163.168992 
L 62.163675 173.398523 
L 63.626161 174.511113 
L 64.113656 175.736005 
L 66.063637 176.835134 
L 66.551132 177.867362 
L 67.526123 178.320422 
L 68.501113 178.743929 
L 68.988608 179.139511 
L 69.476104 179.263981 
L 70.451094 179.772413 
L 70.938589 179.907627 
L 71.426085 180.184533 
L 73.376066 180.66588 
L 73.863561 185.892625 
L 74.351056 185.983684 
L 74.838552 159.614457 
L 76.788533 161.047054 
L 77.276028 170.357418 
L 78.738514 171.282002 
L 79.226009 172.516697 
L 80.200999 173.007689 
L 80.688495 173.404732 
L 81.17599 173.647745 
L 81.663485 174.686909 
L 83.613466 175.5733 
L 84.100961 176.060451 
L 87.025933 177.285723 
L 88.488419 177.63217 
L 88.975914 182.848739 
L 89.463409 182.933121 
L 89.950905 156.610328 
L 90.925895 157.349148 
L 91.41339 157.791137 
L 91.900886 166.929107 
L 92.875876 167.477191 
L 93.363371 167.831148 
L 93.850867 169.035376 
L 94.825857 169.615044 
L 95.800848 170.007048 
L 96.288343 171.072201 
L 100.188305 172.920096 
L 100.6758 173.063332 
L 101.163295 173.349211 
L 103.113277 173.858772 
L 103.600772 179.112684 
L 104.088267 179.253582 
L 104.575762 153.037611 
L 105.550753 153.782156 
L 106.525743 154.364872 
L 107.013239 163.665436 
L 107.988229 164.376934 
L 108.475724 164.693508 
L 108.96322 165.869466 
L 110.425705 166.685711 
L 110.913201 166.93363 
L 111.400696 168.053959 
L 112.863182 168.691326 
L 113.350677 168.854923 
L 113.838172 169.336884 
L 115.788153 170.029576 
L 116.763144 170.403134 
L 118.22563 170.780855 
L 118.713125 175.883694 
L 119.20062 175.947695 
L 119.688115 149.741671 
L 121.150601 150.705664 
L 121.638096 160.225179 
L 123.100582 161.098056 
L 123.588077 162.443806 
L 125.538058 163.665731 
L 126.025554 164.750551 
L 127.488039 165.49393 
L 127.975535 165.74917 
L 128.46303 166.22386 
L 130.413011 166.99076 
L 131.388002 167.422658 
L 132.850487 167.832528 
L 133.337983 172.777232 
L 133.825478 172.921532 
L 134.312973 146.793821 
L 136.262954 148.32222 
L 136.750449 157.13597 
L 137.72544 157.560771 
L 138.212935 157.801668 
L 138.70043 159.01453 
L 140.650411 159.900343 
L 141.137907 160.92869 
L 142.112897 161.337361 
L 143.087888 161.697431 
L 143.575383 162.204896 
L 144.550373 162.509189 
L 146.98785 163.307803 
L 147.96284 163.489948 
L 148.450336 168.503759 
L 148.937831 168.688863 
L 149.425326 142.356316 
L 151.375307 143.329588 
L 151.862802 153.31696 
L 153.325288 154.187472 
L 153.812783 155.343084 
L 155.762764 156.318795 
L 156.25026 157.362325 
L 158.200241 158.001805 
L 158.687736 158.435841 
L 159.662727 158.854805 
L 160.637717 159.159108 
L 161.125212 159.438619 
L 163.075193 160.071904 
L 163.562689 165.048815 
L 164.050184 165.093874 
L 164.537679 138.861713 
L 166.000165 139.792027 
L 166.48766 149.721842 
L 167.462651 150.238373 
L 167.950146 150.551283 
L 168.437641 151.728906 
L 170.387622 152.873825 
L 170.875117 153.941691 
L 172.825098 154.820432 
L 173.312594 155.357056 
L 174.287584 155.598099 
L 174.77508 155.87641 
L 175.262575 156.017124 
L 175.75007 156.324962 
L 177.700051 156.733812 
L 178.187546 161.745366 
L 178.675042 161.854554 
L 179.162537 135.591257 
L 179.650032 136.010682 
L 181.112518 136.766863 
L 181.600013 146.22884 
L 182.575004 146.943446 
L 183.062499 147.296527 
L 183.549994 148.534865 
L 184.524985 149.193834 
L 185.499975 149.728388 
L 185.98747 150.843808 
L 186.962461 151.414371 
L 187.449956 151.538066 
L 187.937452 151.825162 
L 188.424947 152.246519 
L 189.887433 152.822403 
L 190.374928 152.957685 
L 191.349918 153.425434 
L 192.324909 153.56366 
L 192.812404 153.717776 
L 193.299899 159.035619 
L 193.787395 159.093596 
L 194.27489 132.93591 
L 195.737376 133.989893 
L 196.224871 143.047 
L 197.687357 144.162569 
L 198.174852 145.356174 
L 200.124833 146.628802 
L 200.612328 147.761852 
L 202.074814 148.582057 
L 202.562309 148.910344 
L 203.049805 149.38645 
L 204.51229 149.903184 
L 204.999786 150.081041 
L 205.974776 150.814088 
L 206.949767 151.208923 
L 207.437262 151.448475 
L 207.924757 156.510518 
L 208.412252 156.726401 
L 208.899748 117.107336 
L 210.362233 118.2604 
L 210.849729 118.570672 
L 211.337224 135.281315 
L 212.79971 136.042029 
L 213.287205 137.159307 
L 213.7747 137.560237 
L 215.237186 138.191539 
L 215.724681 139.211674 
L 217.674662 139.998788 
L 218.162158 140.476199 
L 220.112139 141.043281 
L 220.599634 141.410878 
L 222.549615 141.908327 
L 223.03711 144.582773 
L 223.524605 144.693062 
L 224.012101 118.402662 
L 225.474586 119.359906 
L 225.962082 119.648376 
L 226.449577 130.956877 
L 226.937072 131.295328 
L 227.912063 131.749847 
L 228.399558 132.965617 
L 230.349539 133.924852 
L 230.837034 134.967529 
L 232.787015 135.648524 
L 233.274511 136.058147 
L 236.686977 137.3964 
L 237.661968 137.632075 
L 238.149463 138.193727 
L 238.636958 138.265273 
L 239.124454 111.949949 
L 239.611949 112.319172 
L 240.099444 125.308755 
L 241.56193 126.38673 
L 242.049425 127.635466 
L 243.999406 128.697004 
L 244.486902 129.756986 
L 246.436883 130.713589 
L 246.924378 131.149122 
L 248.386864 131.713972 
L 248.874359 131.834658 
L 249.361854 132.104558 
L 250.82434 132.389634 
L 252.286826 132.8827 
L 252.774321 106.64989 
L 254.724302 108.064303 
L 255.211797 120.320366 
L 256.674283 121.051288 
L 257.161778 122.24972 
L 258.136769 122.961418 
L 259.111759 123.42196 
L 259.599255 124.396755 
L 260.574245 124.903306 
L 261.06174 125.292615 
L 261.549236 125.506792 
L 262.036731 125.926839 
L 267.399179 127.822711 
L 267.886674 101.595826 
L 269.34916 102.650834 
L 269.836655 115.113907 
L 271.299141 115.984052 
L 271.786636 117.200402 
L 272.761627 117.802533 
L 273.736617 118.198334 
L 274.224112 119.298056 
L 277.149084 120.835678 
L 278.61157 121.30165 
L 279.099065 121.610474 
L 281.049046 122.040059 
L 281.536541 122.309821 
L 282.024036 122.377693 
L 282.511532 96.187427 
L 284.461513 97.523327 
L 284.949008 110.002075 
L 285.923998 110.73961 
L 286.411494 111.012702 
L 286.898989 112.220006 
L 288.84897 113.298537 
L 289.336465 114.354649 
L 291.286446 115.220035 
L 291.773942 115.701521 
L 292.748932 116.162179 
L 293.723923 116.48282 
L 294.698913 116.953749 
L 297.136389 117.594005 
L 297.623885 91.419345 
L 299.08637 92.606974 
L 299.573866 104.895836 
L 300.548856 105.572713 
L 301.036351 105.857595 
L 301.523847 107.042422 
L 303.473828 108.224033 
L 303.961323 109.347384 
L 305.423809 110.051753 
L 305.911304 110.308962 
L 306.398799 110.749181 
L 308.34878 111.344729 
L 309.323771 111.870516 
L 311.273752 112.35849 
L 311.761247 112.460783 
L 312.248742 86.225109 
L 314.198723 87.779665 
L 314.686219 100.114144 
L 316.148705 100.954112 
L 316.6362 102.08206 
L 318.586181 102.973567 
L 319.073676 104.003517 
L 321.023657 104.755117 
L 321.511152 105.155853 
L 323.461133 105.773122 
L 324.436124 106.11431 
L 326.8736 106.640943 
L 327.361095 80.486649 
L 328.336086 81.076935 
L 328.823581 81.685569 
L 329.311076 82.006003 
L 329.798572 94.932849 
L 331.261058 95.635644 
L 331.748553 96.837522 
L 332.723543 97.611897 
L 333.698534 98.053085 
L 334.186029 99.213754 
L 336.13601 100.142772 
L 336.623505 100.607341 
L 338.573486 101.166866 
L 339.548477 101.695246 
L 341.010963 102.284113 
L 341.985953 102.55962 
L 342.473448 76.448988 
L 343.935934 77.515202 
L 344.42343 89.987181 
L 345.885915 90.797625 
L 346.373411 92.018629 
L 347.348401 92.550084 
L 348.323392 92.983357 
L 348.810887 93.91827 
L 350.760868 94.973685 
L 351.248363 95.398534 
L 352.710849 95.926974 
L 353.198344 96.101291 
L 353.685839 96.40813 
L 355.148325 96.879957 
L 355.63582 96.965437 
L 356.610811 97.33725 
L 357.098306 71.228135 
L 358.073297 71.948689 
L 359.048287 72.497658 
L 359.535783 84.998484 
L 360.998268 86.099718 
L 361.485764 87.266006 
L 362.460754 87.735595 
L 363.435745 88.329556 
L 363.92324 89.40494 
L 365.873221 90.310202 
L 366.360716 90.756951 
L 368.310697 91.425466 
L 368.798192 91.759816 
L 371.235669 92.496817 
L 371.723164 92.573467 
L 372.210659 66.472727 
L 373.673145 67.714949 
L 374.16064 80.309045 
L 375.623126 81.515001 
L 376.110621 82.65071 
L 377.085612 83.320225 
L 378.060602 83.835607 
L 378.548098 84.89427 
L 380.498079 85.874899 
L 380.985574 86.400656 
L 382.44806 87.111664 
L 382.935555 87.252371 
L 383.910545 87.77127 
L 383.910545 87.77127 
" clip-path="url(#p7f813c18c2)" style="fill: none; stroke: #006ba2; stroke-width: 1.2; stroke-linecap: round"/>
   </g>
   <g id="line2d_25">
    <path d="M 33.401455 189.93581 
L 34.86394 190.694716 
L 35.351436 191.592968 
L 35.838931 191.959636 
L 36.326426 192.487193 
L 37.301417 193.099282 
L 37.788912 194.41564 
L 38.763902 194.786213 
L 39.251398 195.405925 
L 41.201379 196.377136 
L 42.176369 196.700707 
L 42.663864 197.064167 
L 43.638855 197.39038 
L 44.613845 197.695457 
L 45.101341 198.066824 
L 45.588836 198.191459 
L 46.076331 181.286902 
L 46.563827 181.82188 
L 48.026312 182.653044 
L 48.513808 189.650806 
L 49.001303 189.846287 
L 49.976293 190.524835 
L 50.463789 191.325041 
L 51.438779 191.638816 
L 52.41377 192.006302 
L 52.901265 193.185356 
L 53.876255 193.542294 
L 54.851246 193.831105 
L 55.338741 194.169856 
L 56.801227 194.666668 
L 57.288722 194.77487 
L 57.776217 195.062618 
L 58.263713 195.180369 
L 58.751208 195.538603 
L 59.726199 195.729736 
L 60.213694 196.227903 
L 60.701189 196.334792 
L 61.188684 179.505344 
L 61.67618 179.728371 
L 62.163675 187.480039 
L 62.65117 187.708442 
L 63.138665 188.250777 
L 63.626161 188.594501 
L 64.113656 189.449629 
L 66.063637 190.356434 
L 66.551132 191.677961 
L 68.013618 192.35037 
L 68.501113 192.561237 
L 69.476104 193.35766 
L 70.451094 193.721649 
L 70.938589 193.890039 
L 71.426085 194.264808 
L 73.376066 194.696592 
L 73.863561 195.082913 
L 74.351056 195.165459 
L 74.838552 178.41475 
L 75.813542 179.279811 
L 76.788533 179.782058 
L 77.276028 186.560688 
L 78.251018 187.100925 
L 78.738514 187.2767 
L 79.226009 188.007674 
L 81.17599 188.884886 
L 81.663485 190.086819 
L 83.125971 190.531347 
L 84.588457 191.349131 
L 85.075952 191.655717 
L 86.050942 191.884875 
L 86.538438 192.296447 
L 87.513428 192.664542 
L 88.000924 192.986646 
L 88.488419 193.070341 
L 88.975914 193.44954 
L 89.463409 193.529253 
L 89.950905 177.080704 
L 91.41339 178.239181 
L 91.900886 185.099864 
L 92.388381 185.469095 
L 93.363371 185.920484 
L 93.850867 186.698084 
L 95.800848 187.480289 
L 96.288343 188.481403 
L 97.263333 188.774253 
L 97.750829 189.269088 
L 98.238324 189.435913 
L 98.725819 189.765247 
L 100.6758 190.301953 
L 101.163295 190.665536 
L 102.138286 190.879536 
L 103.113277 191.070262 
L 103.600772 191.465442 
L 104.088267 191.709467 
L 104.575762 175.371934 
L 106.525743 176.683426 
L 107.013239 183.331069 
L 107.500734 183.879451 
L 108.475724 184.481059 
L 108.96322 185.131956 
L 109.93821 185.621148 
L 110.913201 186.165308 
L 111.400696 187.341473 
L 115.300658 188.900865 
L 115.788153 188.97605 
L 116.275649 189.26238 
L 118.22563 189.71847 
L 118.713125 190.034724 
L 119.20062 190.081891 
L 119.688115 173.819424 
L 121.150601 174.677378 
L 121.638096 181.86942 
L 123.100582 182.657521 
L 123.588077 183.409412 
L 125.538058 184.464621 
L 126.025554 185.558218 
L 127.975535 186.373499 
L 128.46303 186.827679 
L 129.925516 187.168697 
L 130.900506 187.766694 
L 132.850487 188.061127 
L 133.337983 188.481486 
L 133.825478 188.567175 
L 134.312973 172.202743 
L 135.287964 172.868415 
L 135.775459 173.261046 
L 136.262954 173.486678 
L 136.750449 180.092878 
L 138.212935 180.649171 
L 138.70043 181.450151 
L 140.650411 182.19894 
L 141.137907 183.274828 
L 142.600392 183.637478 
L 144.062878 184.412448 
L 145.525364 184.817512 
L 146.012859 185.159488 
L 147.96284 185.542488 
L 148.450336 185.869713 
L 148.937831 185.925518 
L 149.425326 169.536088 
L 150.400317 170.009754 
L 151.375307 170.730184 
L 151.862802 178.297898 
L 153.325288 179.02115 
L 153.812783 179.666291 
L 155.762764 180.555207 
L 156.25026 181.645767 
L 156.737755 181.895238 
L 157.22525 181.985741 
L 160.150222 183.142765 
L 160.637717 183.289965 
L 161.125212 183.581753 
L 163.075193 183.974077 
L 163.562689 184.26923 
L 164.050184 184.325299 
L 164.537679 168.006653 
L 166.000165 169.124288 
L 166.48766 176.304653 
L 167.462651 176.858916 
L 167.950146 177.036448 
L 168.437641 177.750266 
L 169.412632 178.409692 
L 170.387622 178.806304 
L 170.875117 179.956768 
L 171.850108 180.280763 
L 172.337603 180.713793 
L 172.825098 180.831477 
L 173.312594 181.127478 
L 175.262575 181.58852 
L 175.75007 181.8783 
L 177.700051 182.272896 
L 178.187546 182.598719 
L 178.675042 182.733815 
L 179.162537 166.448177 
L 181.112518 167.967291 
L 181.600013 174.993839 
L 183.062499 175.881062 
L 183.549994 176.592383 
L 185.499975 177.4083 
L 185.98747 178.479592 
L 187.937452 179.17618 
L 188.424947 179.526234 
L 191.349918 180.42966 
L 192.812404 180.78215 
L 193.299899 181.159129 
L 193.787395 181.227365 
L 194.27489 165.042423 
L 195.737376 165.875294 
L 196.224871 173.307113 
L 197.687357 174.382988 
L 198.174852 175.088677 
L 200.124833 176.256404 
L 200.612328 177.239455 
L 202.562309 178.066336 
L 203.049805 178.510212 
L 204.999786 179.096347 
L 205.487281 179.545276 
L 205.974776 179.718104 
L 206.949767 180.338313 
L 207.437262 180.542429 
L 207.924757 180.917784 
L 208.412252 181.118762 
L 208.899748 152.024644 
L 210.362233 153.325208 
L 210.849729 153.804391 
L 211.337224 168.993974 
L 212.79971 169.684401 
L 213.287205 170.409696 
L 214.262195 170.904761 
L 214.749691 171.045649 
L 215.237186 171.330716 
L 215.724681 172.527183 
L 217.674662 173.683547 
L 218.162158 174.108702 
L 220.112139 174.54119 
L 220.599634 174.889475 
L 222.549615 175.281864 
L 223.03711 175.64051 
L 223.524605 175.791115 
L 224.012101 159.255631 
L 225.474586 160.194343 
L 225.962082 160.400457 
L 226.449577 167.684668 
L 226.937072 168.132681 
L 227.912063 168.679665 
L 228.399558 169.275968 
L 230.349539 170.124387 
L 230.837034 171.298239 
L 231.812025 171.812074 
L 232.787015 172.152479 
L 233.274511 172.52057 
L 233.762006 172.748458 
L 235.224492 173.131993 
L 235.711987 173.462692 
L 237.661968 173.867158 
L 238.149463 174.248051 
L 238.636958 174.335555 
L 239.124454 157.847844 
L 239.611949 158.176438 
L 240.099444 165.740539 
L 241.56193 166.75194 
L 242.049425 167.324467 
L 243.999406 168.581007 
L 244.486902 169.843204 
L 248.874359 171.752609 
L 249.361854 172.091146 
L 250.82434 172.449913 
L 251.311835 172.518187 
L 251.79933 172.932077 
L 252.286826 173.05416 
L 252.774321 156.590062 
L 253.261816 157.155852 
L 254.724302 158.133082 
L 255.211797 164.633794 
L 256.674283 165.34916 
L 257.161778 166.01146 
L 258.624264 166.739854 
L 259.111759 166.874725 
L 259.599255 167.95576 
L 261.549236 168.755789 
L 262.036731 169.12675 
L 263.986712 169.637631 
L 264.474207 170.031574 
L 264.961702 170.258921 
L 266.424188 170.465836 
L 266.911683 170.759599 
L 267.399179 170.862213 
L 267.886674 154.681742 
L 268.861664 155.383186 
L 269.34916 155.656729 
L 269.836655 162.936101 
L 271.299141 163.687062 
L 271.786636 164.357181 
L 272.761627 164.926773 
L 273.736617 165.388454 
L 274.224112 166.610104 
L 275.199103 167.099504 
L 275.686598 167.224386 
L 278.124074 168.392693 
L 278.61157 168.501585 
L 279.099065 168.858488 
L 281.049046 169.221495 
L 281.536541 169.542593 
L 282.024036 169.611614 
L 282.511532 153.322455 
L 283.974017 154.162976 
L 284.461513 154.446498 
L 284.949008 161.369124 
L 286.411494 162.391892 
L 286.898989 162.994834 
L 288.84897 164.074912 
L 289.336465 165.212115 
L 291.286446 165.777001 
L 291.773942 166.221398 
L 293.723923 166.838889 
L 294.211418 167.165511 
L 296.161399 167.477051 
L 296.648894 167.828459 
L 297.136389 167.897728 
L 297.623885 151.697551 
L 298.11138 151.936787 
L 299.08637 152.671862 
L 299.573866 159.723058 
L 301.036351 160.774432 
L 301.523847 161.356998 
L 302.986333 162.433745 
L 303.473828 162.688265 
L 303.961323 163.815044 
L 305.911304 164.674067 
L 306.886295 165.260743 
L 310.786257 166.613321 
L 311.273752 167.054359 
L 311.761247 167.106731 
L 312.248742 151.011435 
L 314.198723 152.359532 
L 314.686219 158.344463 
L 315.661209 159.017937 
L 316.148705 159.188806 
L 316.6362 159.787161 
L 317.61119 160.224344 
L 318.586181 160.480756 
L 319.073676 161.637218 
L 320.536162 162.206848 
L 321.023657 162.267016 
L 321.511152 162.570573 
L 326.8736 163.909177 
L 327.361095 147.66375 
L 328.823581 148.591764 
L 329.311076 149.290406 
L 329.798572 156.948388 
L 331.261058 157.559749 
L 331.748553 158.130891 
L 333.698534 159.08541 
L 334.186029 160.265266 
L 335.16102 160.57225 
L 336.13601 160.839651 
L 336.623505 161.231059 
L 338.573486 161.723175 
L 339.060982 161.99981 
L 340.523467 162.260278 
L 341.010963 162.344405 
L 341.498458 162.625651 
L 341.985953 162.736743 
L 342.473448 146.582218 
L 342.960944 147.23105 
L 343.935934 147.793146 
L 344.42343 154.925559 
L 344.910925 155.419276 
L 345.39842 155.6141 
L 345.885915 156.079908 
L 346.373411 156.761107 
L 346.860906 157.115393 
L 348.323392 157.740156 
L 348.810887 158.8882 
L 350.760868 159.701449 
L 351.248363 160.111943 
L 353.198344 160.612768 
L 353.685839 160.969525 
L 354.66083 161.14998 
L 355.63582 161.373747 
L 356.123316 161.663876 
L 356.610811 161.802688 
L 357.098306 145.67675 
L 359.048287 146.967813 
L 359.535783 153.785727 
L 360.510773 154.580135 
L 360.998268 154.801986 
L 361.485764 155.546249 
L 362.460754 156.008471 
L 363.435745 156.554087 
L 363.92324 157.642289 
L 365.873221 158.434997 
L 366.848211 159.02001 
L 367.335707 159.321608 
L 368.310697 159.505224 
L 368.798192 159.761612 
L 370.260678 160.062076 
L 371.723164 160.585784 
L 372.210659 144.384149 
L 373.673145 145.322632 
L 374.16064 152.235761 
L 375.623126 153.13747 
L 376.110621 153.847431 
L 378.060602 155.102735 
L 378.548098 156.191382 
L 380.498079 157.071867 
L 380.985574 157.478194 
L 382.44806 157.91925 
L 382.935555 158.019957 
L 383.42305 158.746313 
L 383.910545 158.954389 
L 383.910545 158.954389 
" clip-path="url(#p7f813c18c2)" style="fill: none; stroke: #e3120b; stroke-width: 1.2; stroke-linecap: round"/>
   </g>
   <g id="line2d_26">
    <path d="M 33.401455 205.927273 
L 45.588836 205.927273 
L 46.076331 181.519143 
L 46.563827 182.168928 
L 48.026312 183.156951 
L 48.513808 203.42459 
L 49.976293 204.128794 
L 50.463789 205.298674 
L 52.41377 205.571694 
L 52.901265 205.915162 
L 60.701189 205.927273 
L 61.188684 181.550965 
L 61.67618 181.855315 
L 62.163675 202.146153 
L 62.65117 202.593713 
L 63.138665 202.76741 
L 63.626161 203.087626 
L 64.113656 204.531892 
L 65.088646 204.920595 
L 66.063637 205.09676 
L 66.551132 205.580796 
L 69.963599 205.857309 
L 74.351056 205.925782 
L 74.838552 181.509865 
L 75.326047 181.801397 
L 75.813542 182.280154 
L 76.301037 182.523511 
L 76.788533 182.904518 
L 77.276028 201.230689 
L 78.251018 201.707744 
L 78.738514 201.887708 
L 79.226009 203.341135 
L 80.688495 204.068831 
L 81.17599 204.208048 
L 81.663485 205.169101 
L 85.563447 205.711814 
L 86.050942 205.731171 
L 86.538438 205.911502 
L 89.463409 205.91258 
L 89.950905 181.63916 
L 91.41339 182.847155 
L 91.900886 200.818827 
L 92.388381 201.039448 
L 92.875876 201.395813 
L 93.363371 201.55665 
L 93.850867 203.245609 
L 94.825857 203.748747 
L 95.800848 204.039475 
L 96.288343 204.973895 
L 99.70081 205.680039 
L 104.088267 205.862136 
L 104.575762 181.544162 
L 105.550753 182.288802 
L 106.525743 182.833223 
L 107.013239 200.562637 
L 108.475724 201.4837 
L 108.96322 203.091801 
L 109.93821 203.452708 
L 110.913201 203.84233 
L 111.400696 204.781043 
L 112.375686 204.972259 
L 113.350677 205.085112 
L 113.838172 205.26059 
L 115.788153 205.362476 
L 116.275649 205.616066 
L 119.20062 205.751551 
L 119.688115 181.389395 
L 120.175611 181.93009 
L 120.663106 182.198333 
L 121.150601 182.614985 
L 121.638096 200.241872 
L 123.100582 201.297459 
L 123.588077 202.836826 
L 125.050563 203.644159 
L 125.538058 203.769732 
L 126.025554 204.710971 
L 127.488039 205.033127 
L 127.975535 205.081687 
L 128.46303 205.292638 
L 133.825478 205.755665 
L 134.312973 181.432101 
L 136.262954 182.830193 
L 136.750449 199.833654 
L 138.212935 200.49604 
L 138.70043 202.1111 
L 140.650411 202.902096 
L 141.137907 204.0127 
L 143.087888 204.526012 
L 143.575383 204.82428 
L 145.525364 205.046521 
L 146.012859 205.304327 
L 147.96284 205.367639 
L 148.450336 205.583439 
L 148.937831 205.616887 
L 149.425326 181.312005 
L 150.400317 181.822913 
L 151.375307 182.218185 
L 151.862802 199.90109 
L 152.837793 200.515623 
L 153.325288 200.771922 
L 153.812783 202.392114 
L 155.762764 203.296177 
L 156.25026 204.374476 
L 157.712745 204.784454 
L 158.200241 204.885947 
L 158.687736 205.185057 
L 163.562689 205.614099 
L 164.050184 205.625315 
L 164.537679 181.114491 
L 166.000165 182.162658 
L 166.48766 199.574591 
L 167.462651 200.233509 
L 167.950146 200.492364 
L 168.437641 202.111867 
L 169.412632 202.765763 
L 170.387622 203.20667 
L 170.875117 204.174442 
L 172.337603 204.593972 
L 173.800089 205.115777 
L 178.187546 205.637004 
L 178.675042 205.637004 
L 179.162537 181.238517 
L 180.137527 181.850492 
L 180.625023 182.129333 
L 181.112518 182.563898 
L 181.600013 199.569934 
L 182.575004 200.128412 
L 183.062499 200.509375 
L 183.549994 202.131501 
L 184.524985 202.840968 
L 185.01248 203.067287 
L 185.499975 203.468308 
L 185.98747 204.556725 
L 186.474966 204.765294 
L 187.937452 205.032445 
L 188.424947 205.296458 
L 190.374928 205.488526 
L 190.862423 205.700419 
L 193.787395 205.840618 
L 194.27489 181.512329 
L 195.737376 182.603372 
L 196.224871 199.446001 
L 197.687357 200.457235 
L 198.174852 202.071714 
L 200.124833 203.322357 
L 200.612328 204.507381 
L 201.587319 204.970947 
L 202.562309 205.20017 
L 203.049805 205.467222 
L 208.412252 205.855815 
L 208.899748 165.523521 
L 210.362233 166.848366 
L 210.849729 167.586413 
L 211.337224 198.975394 
L 212.79971 199.890713 
L 213.287205 201.488455 
L 214.262195 202.029086 
L 215.237186 202.366366 
L 215.724681 203.458139 
L 217.674662 204.107598 
L 218.162158 204.496424 
L 219.624643 204.718988 
L 220.112139 204.762173 
L 220.599634 205.06418 
L 222.06212 205.209729 
L 222.549615 205.228352 
L 223.03711 205.543638 
L 223.524605 205.557721 
L 224.012101 181.246454 
L 224.987091 181.70049 
L 225.474586 181.87138 
L 225.962082 182.275313 
L 226.449577 199.023622 
L 227.912063 199.992917 
L 228.399558 201.611678 
L 230.349539 202.492932 
L 230.837034 203.569048 
L 232.29952 203.901086 
L 232.787015 203.99882 
L 233.274511 204.344689 
L 234.249501 204.525383 
L 235.224492 204.624812 
L 235.711987 204.890896 
L 237.661968 205.000965 
L 238.149463 205.496808 
L 238.636958 205.533454 
L 239.124454 181.187082 
L 239.611949 181.480767 
L 240.099444 199.094426 
L 241.074435 199.771578 
L 241.56193 199.997574 
L 242.049425 201.654016 
L 243.999406 202.542829 
L 244.486902 203.727628 
L 244.974397 204.0453 
L 247.899368 204.990751 
L 248.874359 205.117804 
L 249.361854 205.380857 
L 251.311835 205.536927 
L 251.79933 205.69421 
L 252.286826 205.707735 
L 252.774321 181.317441 
L 254.724302 182.652146 
L 255.211797 198.921496 
L 256.674283 199.88776 
L 257.161778 201.388643 
L 259.111759 202.524563 
L 259.599255 203.722294 
L 260.574245 203.985461 
L 261.549236 204.270182 
L 262.036731 204.637627 
L 263.986712 204.982986 
L 264.474207 205.224412 
L 265.936693 205.379198 
L 266.424188 205.379198 
L 266.911683 205.574441 
L 267.399179 205.591708 
L 267.886674 181.312432 
L 269.34916 182.391858 
L 269.836655 198.883631 
L 271.299141 199.740998 
L 271.786636 201.322061 
L 273.249122 201.977153 
L 273.736617 202.161442 
L 274.224112 203.286187 
L 275.686598 203.924456 
L 276.174093 204.131657 
L 276.661589 204.683576 
L 278.61157 205.058839 
L 279.099065 205.358682 
L 282.024036 205.720106 
L 282.511532 181.267183 
L 283.974017 182.386486 
L 284.461513 182.743332 
L 284.949008 198.849723 
L 286.411494 199.837591 
L 286.898989 201.363844 
L 288.361475 202.229359 
L 288.84897 202.54759 
L 289.336465 203.595744 
L 289.823961 203.703584 
L 290.798951 204.083948 
L 291.286446 204.175785 
L 291.773942 204.561674 
L 295.673904 205.541444 
L 297.136389 205.646774 
L 297.623885 181.328323 
L 298.598875 181.963507 
L 299.08637 182.332767 
L 299.573866 198.75183 
L 300.061361 198.970432 
L 301.036351 199.598365 
L 301.523847 201.169194 
L 302.498837 201.850927 
L 303.473828 202.325086 
L 303.961323 203.437762 
L 304.448818 203.707892 
L 304.936314 203.798233 
L 306.886295 204.654801 
L 308.34878 204.851496 
L 308.836276 205.133577 
L 311.761247 205.561028 
L 312.248742 181.44341 
L 314.198723 182.800791 
L 314.686219 198.791063 
L 316.148705 199.549355 
L 316.6362 201.119799 
L 318.586181 201.940765 
L 319.073676 203.022302 
L 321.023657 203.538962 
L 321.511152 204.09396 
L 323.461133 204.445938 
L 323.948629 204.789314 
L 325.89861 205.047677 
L 326.386105 205.283559 
L 326.8736 205.309194 
L 327.361095 180.894152 
L 328.336086 181.47704 
L 329.311076 181.907452 
L 329.798572 198.726138 
L 330.286067 198.929285 
L 331.261058 199.608658 
L 331.748553 200.961178 
L 333.698534 201.923049 
L 334.186029 203.108722 
L 336.13601 203.760894 
L 336.623505 204.252526 
L 337.111001 204.466239 
L 338.085991 204.632066 
L 338.573486 204.727151 
L 339.060982 205.011864 
L 341.010963 205.316118 
L 341.985953 205.579592 
L 342.473448 181.149763 
L 343.935934 182.114089 
L 344.42343 198.630906 
L 344.910925 199.004048 
L 345.39842 199.554438 
L 345.885915 199.909241 
L 346.373411 201.509309 
L 347.348401 202.145524 
L 348.323392 202.534946 
L 348.810887 203.585834 
L 350.760868 204.276497 
L 351.248363 204.739528 
L 352.223354 204.92889 
L 353.198344 205.099373 
L 353.685839 205.293127 
L 356.610811 205.673374 
L 357.098306 181.396112 
L 358.073297 182.05954 
L 359.048287 182.798084 
L 359.535783 198.460411 
L 360.510773 199.043114 
L 360.998268 199.442273 
L 361.485764 200.854686 
L 363.435745 201.800565 
L 363.92324 202.972789 
L 365.385726 203.542306 
L 365.873221 203.759372 
L 366.360716 204.280775 
L 368.310697 204.674925 
L 368.798192 204.968704 
L 370.748173 205.213938 
L 371.235669 205.465842 
L 371.723164 205.507548 
L 372.210659 181.159115 
L 373.673145 182.482842 
L 374.16064 198.472423 
L 375.135631 199.345103 
L 375.623126 199.694471 
L 376.110621 201.246774 
L 377.573107 202.209827 
L 378.060602 202.454107 
L 378.548098 203.61609 
L 379.523088 204.110608 
L 380.498079 204.466073 
L 380.985574 204.834136 
L 383.910545 205.522755 
L 383.910545 205.522755 
" clip-path="url(#p7f813c18c2)" style="fill: none; stroke: #c68a00; stroke-width: 1.2; stroke-linecap: round"/>
   </g>
   <g id="patch_3">
    <path d="M 15.876 212.9 
L 401.436 212.9 
" style="fill: none; stroke: #b7c4cb; stroke-width: 0.8; stroke-linejoin: miter; stroke-linecap: square"/>
   </g>
  </g>
  <g id="text_17">
   <text style="font-weight: 700; font-size: 11px; font-family: 'Fira Sans', 'Source Sans Pro', 'Lato', 'DejaVu Sans', sans-serif; text-anchor: start; fill: #121316" x="9.072" y="23.920312" transform="rotate(-0 9.072 23.920312)">Climbers build a buffer; subsisters end every month at zero</text>
  </g>
  <g id="text_18">
   <text style="font-size: 8.5px; font-family: 'Fira Sans', 'Source Sans Pro', 'Lato', 'DejaVu Sans', sans-serif; text-anchor: start; fill: #58585b" x="9.072" y="35.375" transform="rotate(-0 9.072 35.375)">Mean current-account balance by archetype, €'000</text>
  </g>
  <g id="text_19">
   <text style="font-size: 8px; font-family: 'Fira Sans', 'Source Sans Pro', 'Lato', 'DejaVu Sans', sans-serif; text-anchor: start; fill: #58585b" x="23.572" y="49.648125" transform="rotate(-0 23.572 49.648125)">Climber</text>
  </g>
  <g id="text_20">
   <text style="font-size: 8px; font-family: 'Fira Sans', 'Source Sans Pro', 'Lato', 'DejaVu Sans', sans-serif; text-anchor: start; fill: #58585b" x="77.8152" y="49.648125" transform="rotate(-0 77.8152 49.648125)">Chronic</text>
  </g>
  <g id="text_21">
   <text style="font-size: 8px; font-family: 'Fira Sans', 'Source Sans Pro', 'Lato', 'DejaVu Sans', sans-serif; text-anchor: start; fill: #58585b" x="132.0584" y="49.648125" transform="rotate(-0 132.0584 49.648125)">Subsister</text>
  </g>
  <g id="text_22">
   <text style="font-size: 6.5px; font-family: 'Fira Sans', 'Source Sans Pro', 'Lato', 'DejaVu Sans', sans-serif; text-anchor: start; fill: #758d99" x="9.072" y="258.015703" transform="rotate(-0 9.072 258.015703)">Source: synthitaly simulation — 800 consumers × 720 days, seed 42</text>
  </g>
  <g id="text_23">
   <text style="font-size: 6.5px; font-family: 'Fira Sans', 'Source Sans Pro', 'Lato', 'DejaVu Sans', sans-serif; text-anchor: start; fill: #58585b" x="9.072" y="248.515703" transform="rotate(-0 9.072 248.515703)">The teeth are the monthly cycle: a credit on the 27th, then a month of spending. What differs between archetypes is the floor, not the shape.</text>
  </g>
  <g id="patch_4">
   <path d="M 9.072 9.2 
L 47.628 9.2 
L 47.628 6 
L 9.072 6 
z
" style="fill: #e3120b"/>
  </g>
  <g id="patch_5">
   <path d="M 9.072 49 
L 20.072 49 
L 20.072 46 
L 9.072 46 
z
" style="fill: #006ba2"/>
  </g>
  <g id="patch_6">
   <path d="M 63.3152 49 
L 74.3152 49 
L 74.3152 46 
L 63.3152 46 
z
" style="fill: #e3120b"/>
  </g>
  <g id="patch_7">
   <path d="M 117.5584 49 
L 128.5584 49 
L 128.5584 46 
L 117.5584 46 
z
" style="fill: #c68a00"/>
  </g>
 </g>
 <defs>
  <clipPath id="p7f813c18c2">
   <rect x="15.876" y="59.5" width="385.56" height="153.4"/>
  </clipPath>
 </defs>
</svg>
